<mxfile host="app.diagrams.net" modified="2021-12-21T07:59:35.994Z" agent="5.0 (Macintosh; Intel Mac OS X 10_15_7) AppleWebKit/537.36 (KHTML, like Gecko) Chrome/96.0.4664.110 Safari/537.36" etag="O1PqEeIAbHc5FtubMo0i" version="15.9.6" type="github">
  <diagram id="iYqv7G-KmKtPcrPyYBzs" name="Page-1">
    <mxGraphModel dx="1577" dy="917" grid="1" gridSize="10" guides="1" tooltips="1" connect="1" arrows="1" fold="1" page="1" pageScale="1" pageWidth="827" pageHeight="1169" math="0" shadow="0">
      <root>
        <mxCell id="0" />
        <mxCell id="1" parent="0" />
        <mxCell id="kukw-stpgKNyvUTk0VuC-7" style="edgeStyle=none;rounded=0;orthogonalLoop=1;jettySize=auto;html=1;" edge="1" parent="1" target="kukw-stpgKNyvUTk0VuC-5">
          <mxGeometry relative="1" as="geometry">
            <mxPoint x="110" y="230" as="sourcePoint" />
          </mxGeometry>
        </mxCell>
        <mxCell id="kukw-stpgKNyvUTk0VuC-8" style="edgeStyle=none;rounded=0;orthogonalLoop=1;jettySize=auto;html=1;" edge="1" parent="1" source="kukw-stpgKNyvUTk0VuC-1" target="kukw-stpgKNyvUTk0VuC-3">
          <mxGeometry relative="1" as="geometry" />
        </mxCell>
        <mxCell id="kukw-stpgKNyvUTk0VuC-1" value="用户" style="shape=umlActor;verticalLabelPosition=bottom;verticalAlign=top;html=1;outlineConnect=0;" vertex="1" parent="1">
          <mxGeometry x="80" y="200" width="30" height="60" as="geometry" />
        </mxCell>
        <mxCell id="kukw-stpgKNyvUTk0VuC-3" value="选择工作空间&lt;br&gt;" style="ellipse;whiteSpace=wrap;html=1;" vertex="1" parent="1">
          <mxGeometry x="540" y="110" width="120" height="80" as="geometry" />
        </mxCell>
        <mxCell id="kukw-stpgKNyvUTk0VuC-5" value="查看工作空间" style="ellipse;whiteSpace=wrap;html=1;" vertex="1" parent="1">
          <mxGeometry x="540" y="240" width="120" height="80" as="geometry" />
        </mxCell>
        <mxCell id="kukw-stpgKNyvUTk0VuC-22" style="edgeStyle=none;rounded=0;orthogonalLoop=1;jettySize=auto;html=1;" edge="1" parent="1" source="kukw-stpgKNyvUTk0VuC-23" target="kukw-stpgKNyvUTk0VuC-24">
          <mxGeometry relative="1" as="geometry" />
        </mxCell>
        <mxCell id="kukw-stpgKNyvUTk0VuC-30" style="edgeStyle=none;rounded=0;orthogonalLoop=1;jettySize=auto;html=1;" edge="1" parent="1" source="kukw-stpgKNyvUTk0VuC-23" target="kukw-stpgKNyvUTk0VuC-25">
          <mxGeometry relative="1" as="geometry" />
        </mxCell>
        <mxCell id="kukw-stpgKNyvUTk0VuC-31" style="edgeStyle=none;rounded=0;orthogonalLoop=1;jettySize=auto;html=1;" edge="1" parent="1" source="kukw-stpgKNyvUTk0VuC-23" target="kukw-stpgKNyvUTk0VuC-28">
          <mxGeometry relative="1" as="geometry" />
        </mxCell>
        <mxCell id="kukw-stpgKNyvUTk0VuC-32" style="edgeStyle=none;rounded=0;orthogonalLoop=1;jettySize=auto;html=1;" edge="1" parent="1" source="kukw-stpgKNyvUTk0VuC-23" target="kukw-stpgKNyvUTk0VuC-27">
          <mxGeometry relative="1" as="geometry" />
        </mxCell>
        <mxCell id="kukw-stpgKNyvUTk0VuC-33" style="edgeStyle=none;rounded=0;orthogonalLoop=1;jettySize=auto;html=1;" edge="1" parent="1" source="kukw-stpgKNyvUTk0VuC-23" target="kukw-stpgKNyvUTk0VuC-29">
          <mxGeometry relative="1" as="geometry" />
        </mxCell>
        <mxCell id="kukw-stpgKNyvUTk0VuC-23" value="管理员" style="shape=umlActor;verticalLabelPosition=bottom;verticalAlign=top;html=1;outlineConnect=0;" vertex="1" parent="1">
          <mxGeometry x="60" y="680" width="30" height="60" as="geometry" />
        </mxCell>
        <mxCell id="kukw-stpgKNyvUTk0VuC-24" value="选择工作空间&lt;br&gt;" style="ellipse;whiteSpace=wrap;html=1;" vertex="1" parent="1">
          <mxGeometry x="550" y="400" width="120" height="80" as="geometry" />
        </mxCell>
        <mxCell id="kukw-stpgKNyvUTk0VuC-25" value="查看工作空间" style="ellipse;whiteSpace=wrap;html=1;" vertex="1" parent="1">
          <mxGeometry x="550" y="530" width="120" height="80" as="geometry" />
        </mxCell>
        <mxCell id="kukw-stpgKNyvUTk0VuC-27" value="编辑工作空间" style="ellipse;whiteSpace=wrap;html=1;" vertex="1" parent="1">
          <mxGeometry x="550" y="640" width="120" height="80" as="geometry" />
        </mxCell>
        <mxCell id="kukw-stpgKNyvUTk0VuC-28" value="创建工作空间" style="ellipse;whiteSpace=wrap;html=1;" vertex="1" parent="1">
          <mxGeometry x="550" y="770" width="120" height="80" as="geometry" />
        </mxCell>
        <mxCell id="kukw-stpgKNyvUTk0VuC-29" value="删除工作空间" style="ellipse;whiteSpace=wrap;html=1;" vertex="1" parent="1">
          <mxGeometry x="550" y="910" width="120" height="80" as="geometry" />
        </mxCell>
      </root>
    </mxGraphModel>
  </diagram>
</mxfile>
